<svg width="200" height="97" viewBox="0 0 200 97" fill="none" xmlns="http://www.w3.org/2000/svg">
<path d="M61.7714 63.4187H74.4643V67.6026H68.4262V96.9999H61.7714V63.4187Z" fill="white" fill-opacity="0.5"/>
<path d="M81.9926 84.3932L83.1331 67.6026H83.5151L84.6556 84.3932H81.9926ZM74.6229 96.9999H81.1385L81.7552 88.0816H84.893L85.5123 96.9999H92.0253L88.5546 63.4187H78.0936L74.6229 96.9999Z" fill="white" fill-opacity="0.5"/>
<path d="M101.554 85.2465V91.5774C101.554 92.4307 102.208 92.6784 102.59 92.6784C103.218 92.6784 103.654 92.1554 103.654 91.5774V83.7601C103.654 82.7141 103.463 81.5581 100.981 81.5581H98.2793V77.8696H101.09C102.972 77.8696 103.654 77.4292 103.654 75.3648V68.7036C103.654 68.1256 103.218 67.6026 102.59 67.6026C102.208 67.6026 101.554 67.8228 101.554 68.7036V74.1812H94.896V69.4193C94.896 67.0796 95.1688 63.4187 99.8346 63.4187H105.346C110.012 63.4187 110.312 67.0796 110.312 69.4193V74.7868C110.312 78.4477 107.774 79.4386 105.783 79.356V79.6863C110.257 79.5762 110.312 83.0445 110.312 84.2281V90.9993C110.312 93.3665 110.012 96.9999 105.346 96.9999H99.8346C95.1688 96.9999 94.896 93.3665 94.896 90.9993V85.2465H101.554Z" fill="white" fill-opacity="0.5"/>
<path d="M114.678 63.4187H130.094V96.9999H123.437V67.6026H121.336V96.9999H114.678V63.4187Z" fill="white" fill-opacity="0.5"/>
<path d="M141.118 81.8884V67.6026H141.991C142.7 67.6026 143.219 68.2081 143.219 69.2817V80.2093C143.219 81.2828 142.7 81.8884 141.991 81.8884H141.118ZM134.46 96.9999H141.118V85.5768H144.938C149.576 85.5768 149.876 81.9434 149.876 79.5762V69.4193C149.876 67.0796 149.576 63.4187 144.938 63.4187H134.46V96.9999Z" fill="white" fill-opacity="0.5"/>
<path d="M163.001 91.5774C163.001 92.1554 162.564 92.6784 161.937 92.6784C161.555 92.6784 160.9 92.4307 160.9 91.5774V68.7036C160.9 67.8228 161.555 67.6026 161.937 67.6026C162.564 67.6026 163.001 68.1256 163.001 68.7036V91.5774ZM154.242 90.9993C154.242 93.3665 154.543 96.9999 159.181 96.9999H164.72C169.358 96.9999 169.658 93.3665 169.658 90.9993V69.4193C169.658 67.0796 169.358 63.4187 164.72 63.4187H159.181C154.543 63.4187 154.242 67.0796 154.242 69.4193V90.9993Z" fill="white" fill-opacity="0.5"/>
<path d="M191.323 63.4187H200V96.9999H193.342V75.9428H193.097L189.659 96.9999H184.338L180.928 75.9428H180.682V96.9999H174.025V63.4187H182.674L187.012 87.0357L191.323 63.4187Z" fill="white" fill-opacity="0.5"/>
<path d="M53.1468 17.5062C51.1086 8.50539 46.0009 1.1836 45.2969 0C44.1837 1.67906 40.1101 8.14756 38.0391 15.3042C35.7772 23.3142 35.4443 30.4158 36.2247 37.3797C36.9996 44.3712 39.9272 51.5554 39.9272 51.5554C41.4825 55.2989 43.8126 59.3451 45.3297 61.327C47.5534 58.4093 52.6639 49.7112 54.2573 38.3706C55.1441 32.0398 55.1822 26.5071 53.1468 17.5062ZM45.2969 59.0699C44.2956 57.1706 42.7403 53.5648 42.593 47.9496C42.5548 42.5545 44.7021 37.9027 45.3297 36.9393C45.889 37.9027 47.7389 41.949 47.9599 47.4816C48.11 52.8766 46.331 57.1431 45.2969 59.0699ZM52.5547 32.7829C52.4783 36.2237 52.0718 39.857 51.5534 42.0315C51.7389 38.2881 51.2942 33.0307 50.4429 28.9019C49.5916 24.8005 47.1823 17.9191 45.2587 14.7537C43.4825 17.7815 41.2942 23.727 40.1483 28.8743C38.9968 34.0216 38.9641 40.2699 38.9641 42.1417C38.6585 40.5727 37.8945 34.93 38.1101 29.2872C38.2901 24.6354 39.3706 19.8184 39.9627 17.6164C42.2219 10.267 44.7785 5.56016 45.2587 4.81696C45.7389 5.56016 48.9586 11.3681 50.6284 17.4512C52.2901 23.5344 52.6257 29.3698 52.5547 32.7829Z" fill="white" fill-opacity="0.5"/>
<path d="M48.7527 63.4188H33.2576V73.9061C33.2713 73.9061 33.2822 73.8786 33.2958 73.8786C36.9465 70.1902 42.8674 70.1902 46.5208 73.8786C50.1715 77.5395 50.1715 83.5125 46.5208 87.201C46.5045 87.2285 46.4881 87.2285 46.4717 87.256C46.4526 87.256 46.4335 87.2835 46.4171 87.3111C42.7746 90.9444 38.0161 92.7611 33.2576 92.7611C28.4773 92.7611 23.697 90.9444 20.0517 87.256C13.6234 80.7875 12.8621 70.7406 17.7625 63.4188C18.4228 62.4279 19.184 61.492 20.0517 60.6112C23.697 56.9228 28.4773 55.1061 33.2576 55.1061V29.8927C14.8894 29.8927 0 44.8941 0 63.4188C0 81.9436 14.8894 96.9725 33.2576 96.9725C42.8346 96.9725 51.4621 92.8712 57.5303 86.3477V63.4188H48.7527Z" fill="white" fill-opacity="0.5"/>
</svg>
